<?xml version="1.0" standalone="no"?>
<!DOCTYPE svg PUBLIC "-//W3C//DTD SVG 20010904//EN"
 "http://www.w3.org/TR/2001/REC-SVG-20010904/DTD/svg10.dtd">
<svg version="1.0" xmlns="http://www.w3.org/2000/svg"
 width="512.000000pt" height="512.000000pt" viewBox="0 0 512.000000 512.000000"
 preserveAspectRatio="xMidYMid meet">
<metadata>
Created by potrace 1.14, written by Peter Selinger 2001-2017
</metadata>
<g transform="translate(0.000000,512.000000) scale(0.100000,-0.100000)"
fill="#000000" stroke="none">
<path d="M1405 4956 c-60 -15 -140 -55 -184 -92 -17 -14 -59 -61 -94 -103 -77
-95 -73 -91 -127 -130 -43 -31 -123 -71 -142 -71 -5 0 -43 -15 -83 -34 -91
-42 -171 -115 -213 -194 -38 -71 -50 -123 -57 -244 -3 -51 -8 -105 -10 -119
-11 -62 -47 -140 -106 -226 -16 -23 -40 -63 -53 -89 l-24 -48 -84 -1 c-98 -1
-146 -21 -192 -77 -24 -31 -30 -49 -32 -97 -2 -50 2 -66 26 -104 34 -54 96
-87 163 -87 42 0 47 -3 48 -22 1 -13 3 -32 4 -43 2 -11 6 -45 9 -75 4 -30 8
-73 11 -95 8 -68 14 -127 20 -190 3 -33 8 -71 10 -85 2 -14 7 -56 11 -95 3
-38 7 -76 9 -85 3 -14 11 -89 20 -175 2 -22 6 -62 10 -90 7 -58 12 -107 20
-190 3 -33 8 -69 10 -80 2 -11 7 -54 10 -95 4 -41 8 -85 10 -96 2 -12 6 -48
10 -80 3 -33 8 -77 10 -99 3 -22 7 -65 10 -95 3 -30 7 -68 10 -85 2 -16 7 -57
10 -90 3 -33 8 -74 10 -91 2 -16 7 -59 10 -95 4 -35 8 -75 10 -88 3 -14 7 -54
10 -90 4 -36 8 -77 10 -91 2 -14 7 -52 10 -85 3 -33 10 -94 15 -135 5 -41 12
-101 15 -133 3 -32 7 -72 10 -90 2 -18 7 -59 10 -92 11 -111 16 -127 60 -170
30 -30 52 -43 81 -47 21 -4 572 -7 1224 -8 652 -1 1274 -2 1383 -4 109 -1 201
2 204 7 2 4 10 4 16 -1 9 -7 1484 -10 1545 -3 16 1 45 35 49 58 5 32 -7 62
-30 75 -17 10 -140 13 -532 14 -280 1 -516 2 -524 3 -7 1 25 21 73 46 755 392
1119 1293 850 2105 -113 339 -325 634 -609 849 -241 181 -483 284 -790 336
-16 3 -64 8 -107 11 -42 4 -80 9 -85 13 -15 9 -93 130 -124 191 -34 67 -39 89
-45 210 -8 158 -35 244 -103 329 -55 68 -114 107 -229 152 -160 62 -198 91
-306 226 -31 39 -71 82 -89 96 -121 92 -273 116 -433 68 -114 -34 -183 -42
-244 -29 -19 4 -46 9 -60 11 -14 3 -50 12 -80 21 -72 22 -182 27 -245 12z"/>
</g>
</svg>
