<?xml version="1.0" standalone="no"?>
<!DOCTYPE svg PUBLIC "-//W3C//DTD SVG 20010904//EN"
 "http://www.w3.org/TR/2001/REC-SVG-20010904/DTD/svg10.dtd">
<svg version="1.0" xmlns="http://www.w3.org/2000/svg"
 width="94.000000pt" height="94.000000pt" viewBox="0 0 94.000000 94.000000"
 preserveAspectRatio="xMidYMid meet">
<metadata>
Created by potrace 1.14, written by Peter Selinger 2001-2017
</metadata>
<g transform="translate(0.000000,94.000000) scale(0.100000,-0.100000)"
fill="#000000" stroke="none">
<path d="M304 737 c-8 -5 -34 -29 -57 -55 -23 -25 -71 -77 -107 -115 -61 -64
-65 -72 -67 -118 -2 -45 0 -51 22 -59 22 -9 25 -15 25 -64 0 -112 22 -130 159
-129 90 0 96 2 118 27 20 23 23 38 23 102 0 90 10 114 49 114 37 0 43 -15 46
-114 2 -67 6 -82 27 -102 21 -21 33 -24 103 -25 113 -2 120 -1 145 19 19 16
23 29 25 88 1 62 4 70 26 81 20 10 24 20 24 60 0 40 -5 53 -30 79 -16 17 -69
73 -117 125 l-87 95 -48 -5 -48 -6 0 -45 0 -45 49 -3 c47 -3 53 -7 110 -69 34
-36 62 -69 64 -72 1 -3 -128 -6 -288 -6 -159 0 -290 3 -290 6 0 4 29 37 64 75
59 63 66 67 104 66 52 -2 60 10 53 84 -1 15 -76 23 -97 11z"/>
</g>
</svg>
